GRFrun.mot
version=1
nRows=21
nColumns=37
inDegrees=yes
endheader
time	ground_force_calcn_l_vx	ground_force_calcn_l_vy	ground_force_calcn_l_vz	ground_force_calcn_l_px	ground_force_calcn_l_py	ground_force_calcn_l_pz	ground_torque_calcn_l_vx	ground_torque_calcn_l_vy	ground_torque_calcn_l_vz	ground_force_calcn_r_vx	ground_force_calcn_r_vy	ground_force_calcn_r_vz	ground_force_calcn_r_px	ground_force_calcn_r_py	ground_force_calcn_r_pz	ground_torque_calcn_r_vx	ground_torque_calcn_r_vy	ground_torque_calcn_r_vz	ground_force_hand_l_vx	ground_force_hand_l_vy	ground_force_hand_l_vz	ground_force_hand_l_px	ground_force_hand_l_py	ground_force_hand_l_pz	ground_torque_hand_l_vx	ground_torque_hand_l_vy	ground_torque_hand_l_vz	ground_force_hand_r_vx	ground_force_hand_r_vy	ground_force_hand_r_vz	ground_force_hand_r_px	ground_force_hand_r_py	ground_force_hand_r_pz	ground_torque_hand_r_vx	ground_torque_hand_r_vy	ground_torque_hand_r_vz
3.8166393              0              0              0              0              0              0              0              0              0              0              0              0              0              0              0              0              0              0              0              0              0      1.8572829        1.76531    -0.37451462              0              0              0              0              0              0      1.9754063       1.791103     0.13353267              0              0              0
3.8333059              0              0              0              0              0              0              0              0              0              0              0              0              0              0              0              0              0              0              0              0              0      1.8616991      1.7379828    -0.37819155              0              0              0              0              0              0      1.9788471      1.7673455     0.12945949              0              0              0
3.8499725              0              0              0              0              0              0              0              0              0              0              0              0              0              0              0              0              0              0              0              0              0      1.8647759      1.7075792    -0.38128144              0              0              0              0              0              0      1.9813435      1.7394212      0.1261997              0              0              0
3.8666391              0              0              0              0              0              0              0              0              0              0              0              0              0              0              0              0              0              0              0              0              0      1.8665793      1.6742898    -0.38361525              0              0              0              0              0              0      1.9832327      1.7071333     0.12347783              0              0              0
3.8833057              0              0              0              0              0              0              0              0              0              0              0              0              0              0              0              0              0              0              0              0              0      1.8672956      1.6379951    -0.38513921              0              0              0              0              0              0      1.9851495      1.6703002     0.12090773              0              0              0
3.8999723              0              0              0              0              0              0              0              0              0              0              0              0              0              0              0              0              0              0              0              0              0      1.8672145      1.5983066    -0.38585827              0              0              0              0              0              0      1.9876069      1.6289325     0.11831787              0              0              0
3.9166389              0              0              0              0              0              0              0              0              0              0              0              0              0              0              0              0              0              0              0              0              0      1.8666743      1.5548033    -0.38578692              0              0              0              0              0              0      1.9906966      1.5834291     0.11590192              0              0              0
3.9166389              0              0              0              0              0              0              0              0              0              0              0              0              0              0              0              0              0              0              0              0              0      1.8659465      1.5073997     -0.3849166              0              0              0              0              0              0      1.9941397      1.5346354     0.11400952              0              0              0
3.9499721              0              0              0              0              0              0              0              0              0     -25.494177      501.07698     -32.401921      1.7091413 -1.0408341e-16     0.17539882              0       1.379041              0              0              0              0      1.8651301      1.4565619    -0.38320387              0              0              0              0              0              0       1.997556      1.4835562     0.11274888              0              0              0
3.9666387     -8.6185742       405.0543      54.838804      1.6346659 -1.0061396e-16    -0.27274523              0    -0.23731944              0     -37.921224      610.27324     -44.531475      1.6968837 -1.0408341e-16     0.17053929              0      1.1882159              0              0              0              0      1.8641427      1.4033017    -0.38064464              0              0              0              0              0              0      2.0006671      1.4309867      0.1118115              0              0              0
3.9833053     -11.678153      574.25005      77.049914      1.6104656 -9.8879238e-17    -0.27356101              0    -0.28715903              0     -48.448555      648.13177     -52.049422      1.6794206 -1.0283658e-16     0.17716894              0     0.75880741              0              0              0              0      1.8628415      1.3488806      -0.377443              0              0              0              0              0              0      2.0033508       1.377308     0.11069128              0              0              0
3.9999719     -13.692561      694.44614      91.437636      1.5774337 -9.6710834e-17    -0.26706745              0    -0.31518098              0     -55.811817      637.96769     -53.893976       1.656591 -1.0148132e-16     0.18078001              0     0.29802259              0              0              0              0      1.8612326       1.294395    -0.37408329              0              0              0              0              0              0      2.0055764      1.3225728     0.10905171              0              0              0
4.0166385     -14.697271      751.74362       95.98215      1.5490106 -9.4542429e-17    -0.25670241              0    -0.34430463              0     -59.949422      619.75943     -50.865914      1.6241428 -9.9475549e-17     0.18086576              0   -0.026660141              0              0              0              0      1.8595597      1.2403492    -0.37110811              0              0              0              0              0              0      2.0071999      1.2666849     0.10690635              0              0              0
4.0333051     -15.104029      757.12125      92.439067      1.5319239 -9.3675068e-17    -0.24672721              0      -0.392721              0      -61.61119      622.89037     -44.836673      1.6029887 -9.8147402e-17     0.17910271              0    -0.16425653              0              0              0              0      1.8580106      1.1864236    -0.36871038              0              0              0              0              0              0      2.0076287      1.2095792     0.10457508              0              0              0
4.0499717     -15.273653      736.69477      84.789849      1.5147846 -9.1940344e-17    -0.23295647              0    -0.44785204              0     -61.819671      651.15183     -37.854305      1.5877868 -9.7144515e-17     0.17639268              0    -0.15318619              0              0              0              0      1.8561313      1.1317728    -0.36651792              0              0              0              0              0              0      2.0055954      1.1514764     0.10260803              0              0              0
4.0666383     -15.250082      718.06185      77.097557      1.4992079 -9.1940344e-17    -0.21856157              0    -0.46206605              0     -61.489861      686.32785     -31.542759      1.5783897 -9.6710834e-17     0.17355778              0   -0.047671147              0              0              0              0      1.8525325      1.0759392    -0.36385769              0              0              0              0              0              0      1.9994155      1.0931884     0.10178057              0              0              0
4.0833049     -14.858127      718.86104      71.920279      1.4919624 -9.0205621e-17    -0.20851673              0    -0.38006378              0      -61.23584      704.17655     -26.807011      1.5729752 -9.6277153e-17     0.17151119              0     0.12614309              0              0              0              0      1.8454111       1.019815    -0.36034101              0              0              0              0              0              0       1.987796      1.0362553     0.10304437              0              0              0
4.0999715     -14.024462      740.85901      69.742297      1.4914205 -9.0205621e-17     -0.2017202              0    -0.18042918              0     -61.268167      690.83819     -23.761611      1.5708491 -9.5409791e-17     0.17082719              0     0.36001621              0              0              0              0      1.8336411     0.96582709    -0.35619262              0              0              0              0              0              0      1.9706669     0.98277338     0.10729342              0              0              0
4.1166381     -12.976599      771.25857      69.331563      1.4914198 -9.0205621e-17    -0.20117731              0     0.10191569              0     -61.341672      649.50507     -21.886134      1.5709708 -9.5409791e-17     0.17141886              0       0.631068              0              0              0              0       1.817532     0.91717656    -0.35198985              0              0              0              0              0              0      1.9493414     0.93504444     0.11501502              0              0              0
4.1333047     -12.084391      790.33932      68.672199      1.4916785 -9.0205621e-17    -0.20413606              0     0.39062066              0     -60.793217      594.92514      -20.41234      1.5718994 -9.5409791e-17       0.172543              0      0.8880101              0              0              0              0      1.7986208     0.87676311    -0.34822032              0              0              0              0              0              0      1.9258673      0.8952294     0.12603137              0              0              0
4.1499713     -11.439962      781.12618      66.021368      1.4909202 -9.0205621e-17    -0.20762868              0      0.6064909              0        -58.705       541.7908     -18.783547      1.5718517 -9.6277153e-17     0.17343335              0      1.0665866              0              0              0              0      1.7787776     0.84641827    -0.34515345              0              0              0              0              0              0       1.902134     0.86497189      0.1394487              0              0              0
